<svg xmlns="http://www.w3.org/2000/svg" viewBox="0 0 18 18"><defs><linearGradient id="a" x1="-175.993" y1="-343.723" x2="-175.993" y2="-359.232" gradientTransform="matrix(1.156 0 0 1.029 212.573 370.548)" gradientUnits="userSpaceOnUse"><stop offset="0" stop-color="#fea11b"/><stop offset=".284" stop-color="#fea51a"/><stop offset=".547" stop-color="#feb018"/><stop offset=".8" stop-color="#ffc314"/><stop offset="1" stop-color="#ffd70f"/></linearGradient></defs><path d="M5.54 13.105l-.586.588a.267.267 0 01-.377 0L.223 9.353a.533.533 0 010-.755l.588-.59 4.732 4.718a.267.267 0 010 .378z" fill="#50e6ff"/><path d="M4.863 4.305l.59.588a.267.267 0 010 .378L.806 9.932l-.59-.589a.533.533 0 01-.001-.754l4.273-4.285a.267.267 0 01.376 0z" fill="#1490df"/><path d="M17.19 8.012l.588.59a.533.533 0 01-.001.754l-4.354 4.34a.267.267 0 01-.377 0l-.586-.587a.267.267 0 010-.377l4.732-4.718z" fill="#50e6ff"/><path d="M17.782 9.34l-.59.589-4.648-4.662a.267.267 0 010-.377l.59-.588a.267.267 0 01.378 0l4.273 4.286a.533.533 0 010 .753z" fill="#1490df"/><path d="M8.459 9.9H4.87a.193.193 0 01-.2-.181.166.166 0 01.018-.075L8.991 1.13a.206.206 0 01.186-.106h4.245a.193.193 0 01.2.181.165.165 0 01-.035.1L8.534 7.966h4.928a.193.193 0 01.2.181.176.176 0 01-.052.122l-8.189 8.519c-.077.046-.624.5-.356-.189z" fill="url(#a)"/></svg>
