<svg xmlns="http://www.w3.org/2000/svg" id="f9ed9690-6753-43a7-8b32-d66ac7b8a99a" width="18" height="18" viewBox="0 0 18 18"><defs><linearGradient id="f710a364-083f-494c-9d96-89b92ee2d5a8" x1=".5" x2="9" y1="9.77" y2="9.77" gradientUnits="userSpaceOnUse"><stop offset="0" stop-color="#005ba1"/><stop offset=".07" stop-color="#0060a9"/><stop offset=".36" stop-color="#0071c8"/><stop offset=".52" stop-color="#0078d4"/><stop offset=".64" stop-color="#0074cd"/><stop offset=".81" stop-color="#006abb"/><stop offset=".99" stop-color="#005ba1"/></linearGradient></defs><title>Icon-databases-126</title><g><path fill="#005ba1" d="M13.25,10.48V6.57a.14.14,0,0,0-.24-.1l-4,4L4.85,14.63V17.5H16.93a.56.56,0,0,0,.57-.57V6.57a.14.14,0,0,0-.24-.1Z"/><path fill="url(#f710a364-083f-494c-9d96-89b92ee2d5a8)" d="M4.75,3.58C2.4,3.58.5,2.89.5,2V7.67h0v9.26a.56.56,0,0,0,.57.57H9V2C9,2.89,7.1,3.58,4.75,3.58Z"/><rect width="2.27" height="2.27" x="12.91" y="12.97" fill="#fff" rx=".28"/><rect width="2.27" height="2.27" x="8.97" y="12.97" fill="#fff" rx=".28"/><rect width="2.27" height="2.27" x="5.03" y="12.97" fill="#fff" rx=".28"/><path fill="#eaeaea" d="M9,2c0,.85-1.9,1.54-4.25,1.54S.5,2.89.5,2,2.4.5,4.75.5,9,1.19,9,2"/><path fill="#50e6ff" d="M8,1.91c0,.55-1.46,1-3.26,1s-3.26-.43-3.26-1S3,.94,4.75.94,8,1.37,8,1.91"/><path fill="#198ab3" d="M4.75,2.14a8.07,8.07,0,0,0-2.58.37,7.64,7.64,0,0,0,2.58.38,7.64,7.64,0,0,0,2.58-.38A8.07,8.07,0,0,0,4.75,2.14Z"/></g></svg>