<svg xmlns="http://www.w3.org/2000/svg" viewBox="0 0 18 18"><defs><linearGradient id="a" x1="9" y1="14.071" x2="9" y2="1.313" gradientUnits="userSpaceOnUse"><stop offset="0" stop-color="#0078d4"/><stop offset=".156" stop-color="#1380da"/><stop offset=".528" stop-color="#3c91e5"/><stop offset=".822" stop-color="#559cec"/><stop offset="1" stop-color="#5ea0ef"/></linearGradient></defs><path d="M18 10.075a4.044 4.044 0 00-3.51-3.887 5.1 5.1 0 00-5.25-4.875 5.229 5.229 0 00-5 3.408A4.825 4.825 0 000 9.364a4.9 4.9 0 005.068 4.707c.151 0 .3-.007.447-.019h8.207a.819.819 0 00.217-.033A4.093 4.093 0 0018 10.075z" fill="url(#a)"/><path d="M12.067 11.806h-6.36a.276.276 0 00-.282.27v1.732a.276.276 0 00.281.27h6.361a.276.276 0 00.281-.27v-1.732a.277.277 0 00-.281-.27z" fill="#32bedd"/><path d="M12.067 14.415h-6.36a.276.276 0 00-.282.27v1.731a.276.276 0 00.281.271h6.361a.276.276 0 00.281-.271v-1.731a.277.277 0 00-.281-.27z" fill="#198ab3"/><path d="M11.27 12.231h.373a.072.072 0 01.072.072v.356a.069.069 0 01-.069.069h-.379a.069.069 0 01-.069-.069V12.3a.072.072 0 01.072-.069zM11.268 13.087h.376a.072.072 0 01.072.072v.353a.072.072 0 01-.072.072h-.374a.072.072 0 01-.072-.072v-.356a.069.069 0 01.07-.069zM11.289 14.827h.376a.072.072 0 01.072.072v.356a.069.069 0 01-.069.069h-.376a.072.072 0 01-.072-.072V14.9a.069.069 0 01.069-.073zM11.289 15.683h.376a.072.072 0 01.072.072v.356a.069.069 0 01-.069.069h-.379a.069.069 0 01-.069-.069v-.359a.069.069 0 01.069-.069z" fill="#b4ec36"/><path d="M12.007 8.993h-6.36a.276.276 0 00-.282.271V11a.277.277 0 00.281.271h6.361a.277.277 0 00.281-.271V9.264a.277.277 0 00-.281-.271z" fill="#50e6ff"/><path d="M11.208 9.419h.376a.072.072 0 01.072.072v.356a.069.069 0 01-.069.069h-.377a.072.072 0 01-.072-.072v-.356a.069.069 0 01.07-.069zM11.208 10.275h.376a.072.072 0 01.072.072v.353a.069.069 0 01-.069.069h-.379a.069.069 0 01-.069-.069v-.359a.069.069 0 01.069-.066zM11.635 7.4l-2.43 2.43a.29.29 0 01-.41 0L6.365 7.4a.13.13 0 01.092-.221h1.494a.129.129 0 00.129-.129V4.014a.1.1 0 01.1-.1h1.636a.1.1 0 01.1.1v3.037a.129.129 0 00.129.129h1.494a.13.13 0 01.096.22z" fill="#fff"/></svg>
