<?xml version="1.0" encoding="UTF-8" standalone="no"?>
<!DOCTYPE svg PUBLIC "-//W3C//DTD SVG 1.1//EN" "http://www.w3.org/Graphics/SVG/1.1/DTD/svg11.dtd">
<svg width="100%" height="100%" viewBox="0 0 385 106" version="1.1" xmlns="http://www.w3.org/2000/svg" xmlns:xlink="http://www.w3.org/1999/xlink" xml:space="preserve" xmlns:serif="http://www.serif.com/" style="fill-rule:evenodd;clip-rule:evenodd;stroke-linejoin:round;stroke-miterlimit:2;">
    <g transform="matrix(1,0,0,1,-2.77537,-7.15388)">
        <g id="openlineage-logo-color" transform="matrix(1,0,0,1,2.77537,7.15388)">
            <rect x="0" y="0" width="384.097" height="105.459" style="fill:none;"/>
            <g>
                <g transform="matrix(1,0,0,1,346.526,86.7139)">
                    <path d="M0,-67.969L-198.46,-67.969L-198.46,0L1.985,0L25.006,-33.985L0,-67.969Z" style="fill:rgb(116,164,188);fill-rule:nonzero;"/>
                </g>
                <g transform="matrix(1,0,0,1,179.093,35.4637)">
                    <path d="M0,31.773C0.301,32.057 0.452,32.429 0.452,32.889C0.452,33.349 0.301,33.731 0,34.031C-0.301,34.332 -0.682,34.482 -1.142,34.482L-20.109,34.482C-20.57,34.482 -20.951,34.332 -21.252,34.031C-21.553,33.731 -21.704,33.349 -21.704,32.889L-21.704,-1.115C-21.704,-1.575 -21.544,-1.956 -21.225,-2.257C-20.907,-2.558 -20.5,-2.709 -20.003,-2.709C-19.543,-2.709 -19.153,-2.558 -18.834,-2.257C-18.516,-1.956 -18.356,-1.575 -18.356,-1.115L-18.356,31.348L-1.142,31.348C-0.682,31.348 -0.301,31.49 0,31.773" style="fill:white;fill-rule:nonzero;"/>
                </g>
                <g transform="matrix(1,0,0,1,187.488,34.7475)">
                    <path d="M0,34.747C-0.302,35.048 -0.683,35.199 -1.143,35.199C-1.604,35.199 -1.984,35.048 -2.285,34.747C-2.586,34.447 -2.737,34.065 -2.737,33.605L-2.737,9.165C-2.737,8.705 -2.586,8.324 -2.285,8.022C-1.984,7.722 -1.604,7.571 -1.143,7.571C-0.683,7.571 -0.302,7.722 0,8.022C0.301,8.324 0.451,8.705 0.451,9.165L0.451,33.605C0.451,34.065 0.301,34.447 0,34.747M-2.79,3.506C-3.18,3.17 -3.374,2.683 -3.374,2.045L-3.374,1.514C-3.374,0.876 -3.171,0.39 -2.763,0.053C-2.356,-0.283 -1.798,-0.452 -1.089,-0.452C0.327,-0.452 1.036,0.204 1.036,1.514L1.036,2.045C1.036,2.683 0.85,3.17 0.479,3.506C0.106,3.844 -0.435,4.011 -1.143,4.011C-1.852,4.011 -2.4,3.844 -2.79,3.506" style="fill:white;fill-rule:nonzero;"/>
                </g>
                <g transform="matrix(1,0,0,1,216.284,67.0506)">
                    <path d="M0,-21.996C1.541,-20.065 2.311,-17.506 2.311,-14.319L2.311,1.302C2.311,1.762 2.151,2.144 1.833,2.444C1.514,2.745 1.143,2.896 0.717,2.896C0.257,2.896 -0.125,2.745 -0.425,2.444C-0.727,2.144 -0.877,1.762 -0.877,1.302L-0.877,-14.159C-0.877,-16.461 -1.453,-18.33 -2.604,-19.765C-3.755,-21.199 -5.535,-21.916 -7.943,-21.916C-9.467,-21.916 -10.91,-21.562 -12.273,-20.853C-13.638,-20.145 -14.744,-19.198 -15.594,-18.011C-16.444,-16.824 -16.869,-15.54 -16.869,-14.159L-16.869,1.302C-16.869,1.762 -17.021,2.144 -17.32,2.444C-17.622,2.745 -18.003,2.896 -18.463,2.896C-18.924,2.896 -19.305,2.745 -19.605,2.444C-19.906,2.144 -20.057,1.762 -20.057,1.302L-20.057,-22.501C-20.057,-22.961 -19.906,-23.342 -19.605,-23.643C-19.305,-23.944 -18.924,-24.095 -18.463,-24.095C-18.003,-24.095 -17.622,-23.944 -17.32,-23.643C-17.021,-23.342 -16.869,-22.961 -16.869,-22.501L-16.869,-19.579C-15.913,-21.101 -14.54,-22.368 -12.751,-23.377C-10.963,-24.387 -9.13,-24.892 -7.253,-24.892C-3.958,-24.892 -1.541,-23.926 0,-21.996" style="fill:white;fill-rule:nonzero;"/>
                </g>
                <g transform="matrix(1,0,0,1,231.851,65.2706)">
                    <path d="M0,-17.905C-1.753,-16.488 -2.878,-14.451 -3.373,-11.795L14.744,-11.795L14.744,-12.22C14.566,-13.814 14.035,-15.203 13.15,-16.391C12.265,-17.577 11.157,-18.48 9.829,-19.1C8.501,-19.719 7.128,-20.03 5.712,-20.03C3.657,-20.03 1.754,-19.321 0,-17.905M17.56,-9.377C17.241,-9.076 16.869,-8.926 16.444,-8.926L-3.639,-8.926C-3.639,-6.801 -3.206,-4.896 -2.338,-3.214C-1.47,-1.531 -0.23,-0.203 1.382,0.77C2.993,1.745 4.896,2.232 7.093,2.232C8.793,2.232 10.315,1.878 11.662,1.169C13.008,0.461 14.088,-0.443 14.903,-1.541C15.293,-1.86 15.665,-2.019 16.02,-2.019C16.373,-2.019 16.691,-1.877 16.976,-1.594C17.259,-1.31 17.4,-0.991 17.4,-0.637C17.4,-0.247 17.223,0.125 16.869,0.478C15.735,1.86 14.31,2.993 12.592,3.879C10.874,4.763 9.059,5.207 7.146,5.207C4.418,5.207 2.01,4.622 -0.079,3.453C-2.17,2.285 -3.799,0.647 -4.968,-1.461C-6.137,-3.568 -6.721,-6.004 -6.721,-8.766C-6.721,-11.67 -6.146,-14.212 -4.994,-16.391C-3.844,-18.569 -2.311,-20.234 -0.398,-21.385C1.515,-22.535 3.551,-23.112 5.712,-23.112C7.837,-23.112 9.829,-22.615 11.688,-21.624C13.549,-20.632 15.063,-19.18 16.231,-17.267C17.4,-15.355 18.002,-13.088 18.038,-10.467C18.038,-10.042 17.879,-9.678 17.56,-9.377" style="fill:white;fill-rule:nonzero;"/>
                </g>
                <g transform="matrix(1,0,0,1,272.655,46.5959)">
                    <path d="M0,19.445C1.469,18.471 2.62,17.126 3.453,15.407C4.285,13.69 4.702,11.768 4.702,9.643C4.702,7.589 4.285,5.711 3.453,4.011C2.62,2.311 1.469,0.974 0,0C-1.471,-0.974 -3.127,-1.462 -4.968,-1.462C-6.811,-1.462 -8.467,-0.983 -9.936,-0.027C-11.406,0.929 -12.558,2.249 -13.39,3.931C-14.222,5.614 -14.638,7.517 -14.638,9.643C-14.638,11.768 -14.231,13.69 -13.416,15.407C-12.602,17.126 -11.459,18.471 -9.989,19.445C-8.52,20.42 -6.846,20.906 -4.968,20.906C-3.127,20.906 -1.471,20.42 0,19.445M7.226,-3.321C7.525,-3.002 7.677,-2.612 7.677,-2.152L7.677,21.757C7.677,22.217 7.525,22.598 7.226,22.899C6.924,23.2 6.543,23.35 6.083,23.35C5.622,23.35 5.241,23.2 4.94,22.899C4.64,22.598 4.489,22.217 4.489,21.757L4.489,18.196C3.604,19.791 2.275,21.137 0.504,22.235C-1.268,23.333 -3.197,23.882 -5.287,23.882C-7.66,23.882 -9.795,23.262 -11.689,22.022C-13.584,20.782 -15.072,19.082 -16.152,16.922C-17.232,14.761 -17.772,12.335 -17.772,9.643C-17.772,6.951 -17.224,4.534 -16.125,2.39C-15.028,0.248 -13.531,-1.426 -11.636,-2.631C-9.741,-3.834 -7.643,-4.437 -5.34,-4.437C-3.215,-4.437 -1.268,-3.923 0.504,-2.896C2.275,-1.868 3.604,-0.523 4.489,1.142L4.489,-2.152C4.489,-2.612 4.64,-3.002 4.94,-3.321C5.241,-3.64 5.622,-3.799 6.083,-3.799C6.543,-3.799 6.924,-3.64 7.226,-3.321" style="fill:white;fill-rule:nonzero;"/>
                </g>
                <g transform="matrix(1,0,0,1,305.329,56.6371)">
                    <path d="M0,9.457C1.541,8.519 2.745,7.191 3.613,5.472C4.48,3.755 4.915,1.815 4.915,-0.345C4.915,-2.505 4.48,-4.437 3.613,-6.137C2.745,-7.837 1.541,-9.156 0,-10.095C-1.54,-11.033 -3.285,-11.503 -5.233,-11.503C-7.146,-11.503 -8.872,-11.016 -10.413,-10.042C-11.954,-9.067 -13.158,-7.73 -14.026,-6.03C-14.895,-4.33 -15.328,-2.435 -15.328,-0.345C-15.328,1.78 -14.895,3.692 -14.026,5.393C-13.158,7.093 -11.954,8.43 -10.413,9.404C-8.872,10.378 -7.146,10.865 -5.233,10.865C-3.285,10.865 -1.54,10.396 0,9.457M7.438,-13.389C7.739,-13.087 7.891,-12.689 7.891,-12.193L7.891,10.812C7.891,13.575 7.314,15.939 6.163,17.905C5.012,19.871 3.436,21.367 1.435,22.395C-0.566,23.421 -2.86,23.935 -5.445,23.935C-6.686,23.935 -7.987,23.776 -9.351,23.457C-10.715,23.138 -11.884,22.73 -12.857,22.235C-13.832,21.739 -14.39,21.226 -14.531,20.694C-14.779,20.446 -14.902,20.163 -14.902,19.844C-14.902,19.49 -14.743,19.207 -14.425,18.994C-14.283,18.888 -14.105,18.834 -13.894,18.834C-13.681,18.834 -13.273,18.958 -12.671,19.207L-11.556,19.685C-9.359,20.535 -7.305,20.96 -5.393,20.96C-2.24,20.96 0.23,20.065 2.02,18.277C3.808,16.488 4.702,14.07 4.702,11.024L4.702,7.73C3.816,9.643 2.418,11.14 0.505,12.22C-1.407,13.301 -3.409,13.84 -5.499,13.84C-7.942,13.84 -10.147,13.229 -12.113,12.007C-14.079,10.785 -15.629,9.094 -16.763,6.934C-17.896,4.773 -18.463,2.347 -18.463,-0.345C-18.463,-3.002 -17.896,-5.41 -16.763,-7.571C-15.629,-9.731 -14.079,-11.423 -12.113,-12.645C-10.147,-13.867 -7.961,-14.478 -5.552,-14.478C-3.32,-14.478 -1.274,-13.92 0.585,-12.805C2.444,-11.689 3.816,-10.352 4.702,-8.793L4.702,-12.193C4.702,-12.653 4.853,-13.043 5.154,-13.362C5.454,-13.681 5.836,-13.84 6.296,-13.84C6.756,-13.84 7.138,-13.689 7.438,-13.389" style="fill:white;fill-rule:nonzero;"/>
                </g>
                <g transform="matrix(1,0,0,1,325.466,65.2706)">
                    <path d="M0,-17.905C-1.754,-16.488 -2.878,-14.451 -3.373,-11.795L14.744,-11.795L14.744,-12.22C14.566,-13.814 14.035,-15.203 13.15,-16.391C12.264,-17.577 11.158,-18.48 9.83,-19.1C8.5,-19.719 7.127,-20.03 5.711,-20.03C3.656,-20.03 1.754,-19.321 0,-17.905M17.561,-9.377C17.24,-9.076 16.869,-8.926 16.443,-8.926L-3.639,-8.926C-3.639,-6.801 -3.206,-4.896 -2.338,-3.214C-1.471,-1.531 -0.23,-0.203 1.381,0.77C2.992,1.745 4.896,2.232 7.094,2.232C8.793,2.232 10.316,1.878 11.662,1.169C13.008,0.461 14.088,-0.443 14.902,-1.541C15.293,-1.86 15.664,-2.019 16.02,-2.019C16.373,-2.019 16.691,-1.877 16.975,-1.594C17.258,-1.31 17.4,-0.991 17.4,-0.637C17.4,-0.247 17.223,0.125 16.869,0.478C15.734,1.86 14.309,2.993 12.592,3.879C10.873,4.763 9.059,5.207 7.146,5.207C4.418,5.207 2.01,4.622 -0.08,3.453C-2.17,2.285 -3.799,0.647 -4.968,-1.461C-6.137,-3.568 -6.721,-6.004 -6.721,-8.766C-6.721,-11.67 -6.146,-14.212 -4.994,-16.391C-3.844,-18.569 -2.311,-20.234 -0.398,-21.385C1.514,-22.535 3.551,-23.112 5.711,-23.112C7.836,-23.112 9.83,-22.615 11.689,-21.624C13.549,-20.632 15.063,-19.18 16.23,-17.267C17.4,-15.355 18.002,-13.088 18.037,-10.467C18.037,-10.042 17.879,-9.678 17.561,-9.377" style="fill:white;fill-rule:nonzero;"/>
                </g>
                <g transform="matrix(1,0,0,1,42.9291,59.6127)">
                    <path d="M0,-16.524C-1.222,-18.95 -2.922,-20.836 -5.1,-22.182C-7.279,-23.528 -9.768,-24.201 -12.565,-24.201C-15.364,-24.201 -17.852,-23.528 -20.03,-22.182C-22.208,-20.836 -23.909,-18.95 -25.13,-16.524C-26.353,-14.097 -26.963,-11.344 -26.963,-8.262C-26.963,-5.181 -26.353,-2.426 -25.13,-0.001C-23.909,2.426 -22.208,4.312 -20.03,5.658C-17.852,7.004 -15.364,7.677 -12.565,7.677C-9.768,7.677 -7.279,7.004 -5.1,5.658C-2.922,4.312 -1.222,2.426 0,-0.001C1.222,-2.426 1.833,-5.181 1.833,-8.262C1.833,-11.344 1.222,-14.097 0,-16.524M2.949,1.567C1.426,4.472 -0.682,6.747 -3.374,8.394C-6.066,10.041 -9.13,10.865 -12.565,10.865C-16.001,10.865 -19.065,10.041 -21.757,8.394C-24.449,6.747 -26.557,4.472 -28.079,1.567C-29.603,-1.337 -30.364,-4.614 -30.364,-8.262C-30.364,-11.945 -29.603,-15.24 -28.079,-18.145C-26.557,-21.048 -24.449,-23.316 -21.757,-24.945C-19.065,-26.574 -16.001,-27.389 -12.565,-27.389C-9.13,-27.389 -6.066,-26.574 -3.374,-24.945C-0.682,-23.316 1.426,-21.048 2.949,-18.145C4.471,-15.24 5.233,-11.945 5.233,-8.262C5.233,-4.614 4.471,-1.337 2.949,1.567" style="fill:rgb(116,164,188);fill-rule:nonzero;"/>
                </g>
                <g transform="matrix(1,0,0,1,72.5224,57.2209)">
                    <path d="M0,8.714C1.469,7.776 2.621,6.474 3.454,4.809C4.285,3.144 4.702,1.267 4.702,-0.823C4.702,-2.877 4.285,-4.728 3.454,-6.375C2.621,-8.022 1.469,-9.315 0,-10.254C-1.47,-11.192 -3.126,-11.661 -4.968,-11.661C-6.846,-11.661 -8.527,-11.201 -10.015,-10.28C-11.503,-9.359 -12.654,-8.075 -13.469,-6.428C-14.284,-4.781 -14.69,-2.912 -14.69,-0.823C-14.69,1.267 -14.284,3.144 -13.469,4.809C-12.654,6.474 -11.503,7.776 -10.015,8.714C-8.527,9.653 -6.846,10.122 -4.968,10.122C-3.126,10.122 -1.47,9.653 0,8.714M1.673,-12.857C3.586,-11.67 5.082,-10.023 6.163,-7.916C7.243,-5.808 7.784,-3.444 7.784,-0.823C7.784,1.834 7.243,4.216 6.163,6.323C5.082,8.431 3.595,10.087 1.7,11.291C-0.195,12.495 -2.311,13.097 -4.649,13.097C-6.704,13.097 -8.59,12.61 -10.307,11.636C-12.026,10.662 -13.398,9.36 -14.425,7.731L-14.425,21.757C-14.425,22.217 -14.576,22.598 -14.876,22.9C-15.178,23.2 -15.559,23.351 -16.019,23.351C-16.48,23.351 -16.861,23.2 -17.161,22.9C-17.462,22.598 -17.613,22.217 -17.613,21.757L-17.613,-12.884C-17.613,-13.344 -17.462,-13.734 -17.161,-14.053C-16.861,-14.371 -16.48,-14.531 -16.019,-14.531C-15.559,-14.531 -15.178,-14.371 -14.876,-14.053C-14.576,-13.734 -14.425,-13.344 -14.425,-12.884L-14.425,-9.271C-13.504,-10.935 -12.176,-12.246 -10.44,-13.203C-8.705,-14.159 -6.792,-14.637 -4.702,-14.637C-2.364,-14.637 -0.239,-14.043 1.673,-12.857" style="fill:rgb(116,164,188);fill-rule:nonzero;"/>
                </g>
                <g transform="matrix(1,0,0,1,91.808,65.2706)">
                    <path d="M0,-17.905C-1.753,-16.488 -2.878,-14.451 -3.374,-11.795L14.744,-11.795L14.744,-12.22C14.566,-13.814 14.035,-15.203 13.15,-16.391C12.264,-17.577 11.157,-18.48 9.829,-19.1C8.501,-19.719 7.128,-20.03 5.711,-20.03C3.657,-20.03 1.753,-19.321 0,-17.905M17.56,-9.377C17.241,-9.076 16.869,-8.926 16.444,-8.926L-3.639,-8.926C-3.639,-6.801 -3.206,-4.896 -2.338,-3.214C-1.47,-1.531 -0.231,-0.203 1.381,0.77C2.993,1.745 4.896,2.232 7.093,2.232C8.793,2.232 10.315,1.878 11.662,1.169C13.008,0.461 14.088,-0.443 14.903,-1.541C15.292,-1.86 15.665,-2.019 16.019,-2.019C16.373,-2.019 16.691,-1.877 16.975,-1.594C17.258,-1.31 17.4,-0.991 17.4,-0.637C17.4,-0.247 17.223,0.125 16.869,0.478C15.735,1.86 14.31,2.993 12.592,3.879C10.874,4.763 9.059,5.207 7.146,5.207C4.418,5.207 2.01,4.622 -0.08,3.453C-2.17,2.285 -3.799,0.647 -4.968,-1.461C-6.137,-3.568 -6.721,-6.004 -6.721,-8.766C-6.721,-11.67 -6.146,-14.212 -4.994,-16.391C-3.844,-18.569 -2.311,-20.234 -0.398,-21.385C1.514,-22.535 3.551,-23.112 5.711,-23.112C7.837,-23.112 9.829,-22.615 11.688,-21.624C13.548,-20.632 15.063,-19.18 16.231,-17.267C17.4,-15.355 18.002,-13.088 18.038,-10.467C18.038,-10.042 17.878,-9.678 17.56,-9.377" style="fill:rgb(116,164,188);fill-rule:nonzero;"/>
                </g>
                <g transform="matrix(1,0,0,1,136.491,67.0506)">
                    <path d="M0,-21.996C1.541,-20.065 2.311,-17.506 2.311,-14.319L2.311,1.302C2.311,1.762 2.152,2.144 1.833,2.444C1.514,2.745 1.143,2.896 0.717,2.896C0.257,2.896 -0.125,2.745 -0.425,2.444C-0.726,2.144 -0.876,1.762 -0.876,1.302L-0.876,-14.159C-0.876,-16.461 -1.453,-18.33 -2.604,-19.765C-3.755,-21.199 -5.535,-21.916 -7.943,-21.916C-9.466,-21.916 -10.91,-21.562 -12.273,-20.853C-13.637,-20.145 -14.744,-19.198 -15.594,-18.011C-16.444,-16.824 -16.869,-15.54 -16.869,-14.159L-16.869,1.302C-16.869,1.762 -17.02,2.144 -17.32,2.444C-17.622,2.745 -18.003,2.896 -18.463,2.896C-18.923,2.896 -19.305,2.745 -19.605,2.444C-19.906,2.144 -20.057,1.762 -20.057,1.302L-20.057,-22.501C-20.057,-22.961 -19.906,-23.342 -19.605,-23.643C-19.305,-23.944 -18.923,-24.095 -18.463,-24.095C-18.003,-24.095 -17.622,-23.944 -17.32,-23.643C-17.02,-23.342 -16.869,-22.961 -16.869,-22.501L-16.869,-19.579C-15.913,-21.101 -14.54,-22.368 -12.751,-23.377C-10.963,-24.387 -9.13,-24.892 -7.252,-24.892C-3.958,-24.892 -1.541,-23.926 0,-21.996" style="fill:rgb(116,164,188);fill-rule:nonzero;"/>
                </g>
            </g>
        </g>
    </g>
</svg>
