<?xml version="1.0" encoding="UTF-8" standalone="no"?>
<svg xmlns:dc="http://purl.org/dc/elements/1.1/" xmlns:cc="http://creativecommons.org/ns#" xmlns:rdf="http://www.w3.org/1999/02/22-rdf-syntax-ns#" xmlns:svg="http://www.w3.org/2000/svg" xmlns="http://www.w3.org/2000/svg" xmlns:sodipodi="http://sodipodi.sourceforge.net/DTD/sodipodi-0.dtd" xmlns:inkscape="http://www.inkscape.org/namespaces/inkscape" width="120" height="60" viewBox="0 0 120 60" version="1.1" preserveAspectRatio="xMidYMid" id="svg3074" inkscape:version="0.48.4 r9939" sodipodi:docname="kafka-ar21.svg">
<title>Apache Kafka logo</title>
  <metadata>
    <rdf:RDF>
      <cc:Work rdf:about="">
        <dc:format>image/svg+xml</dc:format>
        <dc:type rdf:resource="http://purl.org/dc/dcmitype/StillImage"/>
      </cc:Work>
    </rdf:RDF>
  </metadata>
  <defs/>
  <sodipodi:namedview pagecolor="#ffffff" bordercolor="#666666" borderopacity="1" objecttolerance="10" gridtolerance="10" guidetolerance="10" inkscape:pageopacity="0" inkscape:pageshadow="2" inkscape:window-width="1418" inkscape:window-height="953" id="namedview3080" showgrid="false" inkscape:zoom="4.3913796" inkscape:cx="105.80545" inkscape:cy="23.346305" inkscape:window-x="65" inkscape:window-y="24" inkscape:window-maximized="0" inkscape:current-layer="svg3074"/>
  <g transform="matrix(1.1458335,0,0,1.1458344,-8.815396,-4.3755997)">
    <path inkscape:connector-curvature="0" d="m 20.688654,11.347938 0,0 c -0.493131,-0.504106 -1.177826,-0.814542 -1.940535,-0.814542 -0.760985,0 -1.440077,0.310436 -1.927031,0.814542 l -0.01274,0 c -0.491599,0.500256 -0.796711,1.198519 -0.796711,1.970077 0,0.77614 0.305112,1.470017 0.796711,1.96535 l 0.01274,0.01374 c 0.486954,0.49972 1.166046,0.805819 1.927031,0.805819 0.762709,0 1.447404,-0.306099 1.940535,-0.805819 l 0.0056,-0.01374 c 0.49385,-0.495333 0.794892,-1.18921 0.794892,-1.96535 0,-0.771558 -0.301042,-1.469821 -0.794892,-1.970077 l -0.0056,0 z m -1.940535,38.119593 0,0 c 0.762709,0 1.447404,-0.316187 1.940535,-0.810985 l 0.0056,-0.01428 c 0.49385,-0.493969 0.794892,-1.19228 0.794892,-1.959648 0,-0.775945 -0.301042,-1.471137 -0.794892,-1.973927 l -0.0056,0 c -0.493131,-0.508833 -1.177826,-0.816443 -1.940535,-0.816443 -0.760985,0 -1.440077,0.30761 -1.927031,0.816443 l -0.01274,0 c -0.491599,0.50279 -0.796711,1.197982 -0.796711,1.973927 0,0.767368 0.305112,1.465679 0.796711,1.959648 l 0.01274,0.01428 c 0.486954,0.494798 1.166046,0.810985 1.927031,0.810985 l 0,0 z m 14.909558,-8.437291 0,0 c 0.677799,-0.181437 1.291567,-0.624041 1.666074,-1.29355 l 0.05052,-0.09786 0,0 c 0.333177,-0.633934 0.394333,-1.367041 0.216084,-2.017301 -0.179591,-0.694656 -0.61942,-1.310899 -1.276051,-1.694096 l -0.0385,-0.02646 c -0.639821,-0.357709 -1.368097,-0.435586 -2.037227,-0.249958 -0.680577,0.17286 -1.292334,0.634129 -1.664781,1.297936 -0.377331,0.659617 -0.456112,1.417871 -0.275755,2.115939 0.186678,0.686859 0.622964,1.307049 1.275476,1.694632 l 0.0041,0 c 0.653805,0.382855 1.393335,0.45118 2.080041,0.270718 l 0,0 z m -12.102678,-13.883525 0,0 c -0.718362,-0.728917 -1.709702,-1.185799 -2.80688,-1.185799 -1.095694,0 -2.084161,0.456882 -2.801038,1.185799 -0.71501,0.728185 -1.155557,1.732547 -1.155557,2.849046 0,1.116499 0.440547,2.125246 1.155557,2.862009 0.716877,0.72453 1.705344,1.177222 2.801038,1.177222 1.097178,0 2.088518,-0.452692 2.80688,-1.177222 0.716303,-0.736763 1.15685,-1.74551 1.15685,-2.862009 0,-1.116499 -0.440547,-2.120861 -1.15685,-2.849046 l 0,0 z m -1.578385,-4.745876 0,0 c 1.592369,0.266917 3.022772,1.043057 4.115832,2.163747 l 0.0084,0 c 0.17394,0.176271 0.34309,0.370428 0.50022,0.564633 l 2.73241,-1.608226 c -0.36761,-1.129462 -0.384467,-2.310339 -0.08927,-3.418261 0.389496,-1.482589 1.334429,-2.810399 2.750752,-3.642096 l 0.04641,-0.03007 c 1.400998,-0.806599 2.993367,-0.974342 4.43081,-0.578182 1.455641,0.39694 2.768903,1.36285 3.586208,2.802018 l 0,0.0042 c 0.81376,1.43137 0.9786,3.074051 0.590589,4.55245 -0.387245,1.482785 -1.335723,2.819172 -2.750704,3.646531 l -0.373214,0.224031 -0.03783,0 c -1.309096,0.634128 -2.747879,0.733302 -4.06957,0.3792 -1.085205,-0.292746 -2.080616,-0.909574 -2.860183,-1.784108 l -2.7281,1.603451 c 0.313542,0.844514 0.486763,1.754087 0.486763,2.715612 0,0.956602 -0.173221,1.879675 -0.486763,2.728331 l 2.7281,1.599308 c 0.779567,-0.888277 1.774978,-1.491362 2.860183,-1.784692 1.45636,-0.404932 3.069849,-0.232852 4.480617,0.603815 l 0.09051,0.04284 0,0.0042 c 1.362446,0.841054 2.277256,2.13821 2.660191,3.603694 0.388011,1.470016 0.223171,3.113234 -0.590589,4.547479 l -0.04918,0.09995 0,0 -0.0057,-0.0086 c -0.817113,1.38283 -2.10528,2.319452 -3.527254,2.715611 -1.458419,0.391189 -3.072675,0.224031 -4.481335,-0.600453 l 0,-0.0114 c -1.416323,-0.833061 -2.361256,-2.163697 -2.750752,-3.643656 -0.295199,-1.102755 -0.278342,-2.283632 0.08927,-3.413094 l -2.73241,-1.604035 c -0.15713,0.194205 -0.32628,0.379785 -0.50022,0.556056 l -0.0084,0.0086 c -1.09306,1.116499 -2.523463,1.892639 -4.115832,2.150978 l 0,3.212457 c 1.135012,0.24138 2.150824,0.818977 2.947009,1.629182 l 0,0 0.0043,0.0085 c 1.067103,1.080728 1.727852,2.586369 1.727852,4.24177 0,1.649943 -0.660749,3.147007 -1.727852,4.233437 l -0.0043,0.01691 0,0 c -1.074766,1.085846 -2.54851,1.758425 -4.175504,1.758425 -1.618375,0 -3.096429,-0.672579 -4.168369,-1.758425 l -0.0043,0 0,-0.01691 c -1.068348,-1.08643 -1.730582,-2.583494 -1.730582,-4.233437 0,-1.655401 0.662234,-3.161042 1.730582,-4.24177 l 0,-0.0085 0.0043,0 c 0.795419,-0.810205 1.81329,-1.387802 2.944375,-1.629182 l 0,-3.212457 c -1.592561,-0.258339 -3.020138,-1.034479 -4.111713,-2.150978 l -0.01121,-0.0086 c -1.36302,-1.391944 -2.216817,-3.31012 -2.216817,-5.435366 0,-2.120861 0.853797,-4.039231 2.216817,-5.431175 l 0.01121,0 c 1.091575,-1.12069 2.519152,-1.89683 4.111713,-2.163747 l 0,-3.198908 C 16.39304,18.952168 15.375169,18.374571 14.57975,17.568558 l -0.0043,0 0,-0.0086 c -1.068348,-1.090767 -1.730582,-2.58632 -1.730582,-4.241965 0,-1.646872 0.662234,-3.155486 1.730582,-4.2417695 l 0,0 0.0043,-0.00439 c 1.07194,-1.0901825 2.549994,-1.7622262 4.168369,-1.7622262 1.626994,0 3.100738,0.6720437 4.175504,1.7622262 l 0,0.00439 0.0043,0 c 1.067103,1.0862835 1.727852,2.5948975 1.727852,4.2417695 0,1.655645 -0.660749,3.151198 -1.727852,4.241965 l -0.0043,0.0086 c -0.796185,0.806013 -1.811997,1.38361 -2.947009,1.633373 l 0,3.198908 z m 15.347137,-2.133824 -0.02299,-0.03504 c -0.376757,-0.645873 -0.978026,-1.077073 -1.643086,-1.262896 -0.686706,-0.185385 -1.426236,-0.107751 -2.08416,0.27642 l 0.0041,0 c -0.656631,0.379054 -1.095694,0.99944 -1.279595,1.693901 -0.180357,0.689685 -0.101576,1.452131 0.275755,2.116133 l 0.01255,0.01715 c 0.378241,0.65523 0.980037,1.094958 1.652233,1.272009 0.674733,0.194157 1.427529,0.112137 2.075731,-0.272034 l 0.0352,-0.01715 c 0.638289,-0.387583 1.063511,-0.999976 1.240851,-1.672555 0.181075,-0.693877 0.108664,-1.452131 -0.266608,-2.115939 l 0,0" style="fill:#231f20;fill-opacity:1;fill-rule:nonzero;stroke:none" id="path3139"/>
    <path inkscape:connector-curvature="0" d="m 47.446878,21.206512 3.048729,0 0,9.470406 4.39652,-4.94861 3.655506,0 -5.307739,5.733083 5.329768,7.267282 -3.490761,0 -4.583294,-6.491337 0,6.491337 -3.048729,0 0,-17.522161" style="fill:#231f20;fill-opacity:1;fill-rule:nonzero;stroke:none" id="path3141"/>
    <path inkscape:connector-curvature="0" d="m 62.089158,32.284559 c 0,1.612612 1.139801,3.956968 3.88586,3.956968 1.699166,0 2.817417,-0.900997 3.397374,-2.081679 0.303628,-0.573162 0.443469,-1.185798 0.490402,-1.823338 0.02107,-0.616779 -0.09339,-1.25851 -0.351039,-1.828066 -0.534462,-1.2281 -1.720717,-2.29299 -3.559245,-2.29299 -2.465419,0 -3.863352,2.034455 -3.863352,4.047613 l 0,0.02149 z m 10.797941,6.444114 -3.050166,0 0,-1.870318 c -0.811749,1.512658 -2.511394,2.271449 -4.303947,2.271449 -4.096101,0 -6.492078,-3.245986 -6.492078,-6.913765 0,-4.095568 2.908409,-6.889057 6.492078,-6.889057 2.327015,0 3.746019,1.254904 4.303947,2.297961 l 0,-1.896635 3.050166,0 0,13.000365" style="fill:#231f20;fill-opacity:1;fill-rule:nonzero;stroke:none" id="path3143"/>
    <path inkscape:connector-curvature="0" d="m 76.339069,28.120471 -1.579918,0 0,-2.392163 1.579918,0 0,-0.732572 c 0,-3.862715 2.886379,-4.095567 5.074989,-4.12125 l 0,2.387972 c -0.769606,0 -2.024824,0 -2.024824,1.82753 l 0,0.63832 2.024824,0 0,2.392163 -2.024824,0 0,10.608202 -3.050165,0 0,-10.608202" style="fill:#231f20;fill-opacity:1;fill-rule:nonzero;stroke:none" id="path3145"/>
    <path inkscape:connector-curvature="0" d="m 83.487251,21.206512 3.047771,0 0,9.470406 4.397334,-4.94861 3.655506,0 -5.307739,5.733083 5.328811,7.267282 -3.490762,0 -4.58315,-6.491337 0,6.491337 -3.047771,0 0,-17.522161" style="fill:#231f20;fill-opacity:1;fill-rule:nonzero;stroke:none" id="path3147"/>
    <path inkscape:connector-curvature="0" d="m 98.129387,32.284559 c 0,1.612612 1.139322,3.956968 3.885863,3.956968 1.69677,0 2.81502,-0.900997 3.39593,-2.081679 0.30459,-0.573162 0.44491,-1.185798 0.49089,-1.823338 0.0211,-0.616779 -0.0934,-1.25851 -0.35152,-1.828066 -0.53351,-1.2281 -1.71976,-2.29299 -3.55781,-2.29299 -2.465899,0 -3.863353,2.034455 -3.863353,4.047613 l 0,0.02149 z m 10.796983,6.444114 -3.04921,0 0,-1.870318 c -0.81414,1.512658 -2.51235,2.271449 -4.30394,2.271449 -4.096106,0 -6.490167,-3.245986 -6.490167,-6.913765 0,-4.095568 2.907451,-6.889057 6.490167,-6.889057 2.32557,0 3.74601,1.254904 4.30394,2.297961 l 0,-1.896635 3.04921,0 0,13.000365" style="fill:#231f20;fill-opacity:1;fill-rule:nonzero;stroke:none" id="path3149"/>
  </g>
</svg>
