<svg id="图层_1" data-name="图层 1" xmlns="http://www.w3.org/2000/svg" viewBox="0 0 293.03 95.53"><defs><style>.cls-1{fill:#fff;}</style></defs><title>OpenDAL Logo</title><rect x="3.85" width="161.34" height="29.75"/><path d="M203.56,37.91a19.84,19.84,0,0,1,8.08,7.77,22.85,22.85,0,0,1,2.86,11.55,22.83,22.83,0,0,1-2.86,11.51,19.67,19.67,0,0,1-8.12,7.81,25.79,25.79,0,0,1-12.17,2.76H174.8V35.14h16.55A25.7,25.7,0,0,1,203.56,37.91Zm-3.4,28.76q3.39-3.35,3.4-9.44t-3.4-9.5q-3.41-3.4-9.5-3.4h-5.1V70h5.1Q196.75,70,200.16,66.67Z"/><path d="M277.68,71h14.1v8.3H266.92V35.14h10.76Z"/><polygon points="261.41 79.15 232.73 79.15 232.32 78.02 231.5 75.77 230.53 73.08 230.53 73.07 230.28 72.4 229.06 69.03 228.73 68.12 228.4 69.03 227.18 72.4 226.94 73.07 225.96 75.77 225.15 78.02 224.74 79.15 217.57 79.15 217.98 78.02 218.79 75.77 219.77 73.06 220.01 72.4 221.23 69.03 221.56 68.11 222.45 65.66 223.35 63.16 223.35 63.15 223.67 62.29 224.89 58.92 225.15 58.21 226.11 55.54 226.94 53.25 227.33 52.17 233.72 52.17 234.11 53.26 234.94 55.54 235.91 58.21 235.91 58.22 236.16 58.92 237.38 62.29 237.7 63.17 238.6 65.66 239.49 68.12 239.82 69.03 246.99 69.03 246.66 68.13 246.66 68.12 245.77 65.66 244.87 63.17 244.55 62.29 243.33 58.92 243.08 58.21 242.11 55.54 241.28 53.27 241.28 53.26 240.89 52.17 239.67 48.8 228.91 48.8 228.5 48.8 229.77 45.43 230.52 43.35 230.52 43.34 230.99 42.06 232.21 38.68 232.32 38.4 233.43 35.31 245.54 35.31 246.66 38.4 246.76 38.68 247.98 42.06 248.45 43.36 249.2 45.43 250.25 48.31 250.42 48.8 251.64 52.17 252.04 53.27 252.86 55.54 253.83 58.22 253.83 58.23 254.09 58.92 255.31 62.29 255.63 63.17 256.53 65.66 257.42 68.13 257.75 69.03 258.97 72.4 259.21 73.08 260.19 75.77 261 78.03 261 78.04 261.41 79.15"/><path d="M10.9,76.72a21,21,0,0,1-8-8A22.94,22.94,0,0,1,0,57.16,22.94,22.94,0,0,1,2.93,45.6a21,21,0,0,1,8-8,22.18,22.18,0,0,1,11.15-2.87A22.27,22.27,0,0,1,33.26,37.6a20.82,20.82,0,0,1,7.94,8,23.08,23.08,0,0,1,2.9,11.59,23.06,23.06,0,0,1-2.9,11.59,20.82,20.82,0,0,1-7.94,8,22.27,22.27,0,0,1-11.21,2.87A22.18,22.18,0,0,1,10.9,76.72Zm19.43-4.25a15.13,15.13,0,0,0,5.8-6.11,19.27,19.27,0,0,0,2.11-9.2,19.23,19.23,0,0,0-2.11-9.23,15.29,15.29,0,0,0-5.76-6.08,16.13,16.13,0,0,0-8.32-2.14,16.13,16.13,0,0,0-8.32,2.14A15.29,15.29,0,0,0,8,47.93a19.23,19.23,0,0,0-2.11,9.23A19.27,19.27,0,0,0,8,66.36a15.13,15.13,0,0,0,5.8,6.11,16.12,16.12,0,0,0,8.28,2.14A16.12,16.12,0,0,0,30.33,72.47Z"/><path d="M62.78,46a15.2,15.2,0,0,1,7.84-2A16.15,16.15,0,0,1,79,46.26a15.54,15.54,0,0,1,5.89,6.21A19.33,19.33,0,0,1,87,61.76a19.76,19.76,0,0,1-2.14,9.32,15.67,15.67,0,0,1-14.24,8.63,15.08,15.08,0,0,1-7.78-2,14,14,0,0,1-5.13-5V95.53H52V44.62h5.74V51A13.56,13.56,0,0,1,62.78,46ZM79.57,55a10.83,10.83,0,0,0-4.25-4.41A11.78,11.78,0,0,0,69.43,49a11.34,11.34,0,0,0-10.12,6,13.85,13.85,0,0,0-1.6,6.77,14,14,0,0,0,1.6,6.84,11.3,11.3,0,0,0,10.12,6,11.59,11.59,0,0,0,5.89-1.54,11.12,11.12,0,0,0,4.25-4.47,14.35,14.35,0,0,0,1.57-6.9A14,14,0,0,0,79.57,55Z"/><path d="M126.19,64H98.59a10.85,10.85,0,0,0,11.22,10.83,10.54,10.54,0,0,0,6.2-1.73,9.15,9.15,0,0,0,3.5-4.63h6.17a14.83,14.83,0,0,1-5.54,8.1,16.72,16.72,0,0,1-10.33,3.11,17.44,17.44,0,0,1-8.79-2.2,15.63,15.63,0,0,1-6.08-6.27,19.45,19.45,0,0,1-2.2-9.42,19.64,19.64,0,0,1,2.14-9.38,15,15,0,0,1,6-6.21,17.94,17.94,0,0,1,8.92-2.17,17.31,17.31,0,0,1,8.69,2.14,14.88,14.88,0,0,1,5.83,5.89,17.43,17.43,0,0,1,2,8.47C126.38,61.66,126.31,62.81,126.19,64ZM119,53.73a9.42,9.42,0,0,0-3.94-3.59,12.28,12.28,0,0,0-5.51-1.23,10.64,10.64,0,0,0-7.41,2.77,11.31,11.31,0,0,0-3.49,7.69h21.8A10.61,10.61,0,0,0,119,53.73Z"/><path d="M161.28,47.81q3.9,3.81,3.91,11V79.15h-5.68V59.62c0-3.45-.86-6.08-2.58-7.91A9.2,9.2,0,0,0,149.88,49a9.47,9.47,0,0,0-7.22,2.84c-1.78,1.89-2.68,4.64-2.68,8.25V79.15h-5.73V44.62H140v4.92a11.4,11.4,0,0,1,4.64-4.1A14.41,14.41,0,0,1,151.07,44,14,14,0,0,1,161.28,47.81Z"/><path d="M284.91,27.29h2.81v.65h-1v3.43h-.84V27.94h-1Zm8.12,0v4.08h-.77V28.42L291,31.37h-.59l-1.25-3v3h-.77V27.29h1.08l1.26,3.1,1.3-3.1Z"/><path class="cls-1" d="M24.63,20.49H15.87L14.26,25H11.49L18.75,5h3L29,25H26.24Zm-.75-2.13L20.25,8.22,16.62,18.36Z"/><path class="cls-1" d="M51.15,14.92a7.31,7.31,0,0,1-5.23,1.66H42.06V25H39.44V4.88h6.48a7.37,7.37,0,0,1,5.17,1.64,5.53,5.53,0,0,1,1.77,4.24A5.54,5.54,0,0,1,51.15,14.92Zm-2-1.45a3.48,3.48,0,0,0,1-2.71Q50.18,7,45.92,7H42.06v7.38h3.86A4.66,4.66,0,0,0,49.14,13.47Z"/><path class="cls-1" d="M75.24,20.49H66.49L64.87,25H62.11L69.37,5h3l7.23,20H76.86Zm-.75-2.13L70.86,8.22,67.23,18.36Z"/><path class="cls-1" d="M90.39,9.62A9.6,9.6,0,0,1,94,6a9.91,9.91,0,0,1,5.08-1.33,10.33,10.33,0,0,1,5.74,1.59,9.06,9.06,0,0,1,3.57,4.49h-3.14a6.28,6.28,0,0,0-2.41-2.79,6.88,6.88,0,0,0-3.76-1,7.24,7.24,0,0,0-3.77,1,6.83,6.83,0,0,0-2.62,2.78,8.82,8.82,0,0,0-1,4.22,8.78,8.78,0,0,0,1,4.19,6.89,6.89,0,0,0,2.62,2.78,7.33,7.33,0,0,0,3.77,1,7.06,7.06,0,0,0,3.76-1,6.2,6.2,0,0,0,2.41-2.78h3.14a9,9,0,0,1-3.57,4.45,10.4,10.4,0,0,1-5.74,1.57A10,10,0,0,1,94,23.82a9.59,9.59,0,0,1-3.62-3.64,10.55,10.55,0,0,1-1.32-5.27A10.62,10.62,0,0,1,90.39,9.62Z"/><path class="cls-1" d="M135,4.88V25h-2.63v-9.1H122.17V25h-2.62V4.88h2.62V13.7h10.22V4.88Z"/><path class="cls-1" d="M149.36,7v6.71h7.32v2.16h-7.32V22.8h8.18V25h-10.8V4.85h10.8V7Z"/></svg>
