<svg xmlns="http://www.w3.org/2000/svg" width="453" height="175" fill="none" viewBox="0 0 453 175"><g clip-path="url(#a)"><path fill="#017cee" d="m4.186 172.44 82.21-84.271c.515-.528.614-1.345.184-1.944-5-6.98-14.224-8.19-17.642-12.88C58.81 59.451 56.24 51.588 51.888 52.076c-.303.034-.574.198-.788.416L21.401 82.937C4.316 100.45 1.866 139.01 1.417 171.298c-.02 1.459 1.75 2.186 2.769 1.142"/><path fill="#00ad46" d="m172.44 170.357-84.271-82.21c-.528-.515-1.345-.614-1.944-.185-6.98 5.001-8.19 14.224-12.88 17.643-13.893 10.127-21.756 12.697-21.268 17.049.034.304.198.575.416.788l30.444 29.699c17.513 17.085 56.073 19.535 88.361 19.984 1.459.021 2.186-1.749 1.142-2.768"/><path fill="#04d659" fill-rule="evenodd" d="M82.936 153.141c-9.566-9.332-14.005-27.795 4.335-65.868-29.806 13.32-40.252 30.83-35.113 35.843z" clip-rule="evenodd"/><path fill="#00c7d4" d="m170.355 2.105-82.21 84.271c-.515.528-.614 1.344-.184 1.944 5 6.98 14.224 8.19 17.642 12.88 10.128 13.892 12.698 21.755 17.049 21.268.304-.034.575-.198.789-.417l29.698-30.443c17.086-17.514 19.536-56.073 19.985-88.362.02-1.459-1.75-2.186-2.769-1.141"/><path fill="#11e1ee" fill-rule="evenodd" d="M153.14 91.608c-9.333 9.566-27.796 14.005-65.87-4.336 13.321 29.807 30.831 40.253 35.844 35.114z" clip-rule="evenodd"/><path fill="#e43921" d="m2.103 4.187 84.272 82.21c.527.515 1.344.614 1.943.185 6.98-5.001 8.19-14.224 12.88-17.643 13.893-10.127 21.756-12.697 21.268-17.049-.034-.304-.198-.575-.416-.788L91.606 21.403C74.093 4.318 35.533 1.868 3.245 1.419c-1.46-.02-2.186 1.75-1.142 2.768"/><path fill="#ff7557" fill-rule="evenodd" d="M91.606 21.403c9.566 9.332 14.005 27.795-4.335 65.868 29.806-13.32 40.252-30.83 35.113-35.843z" clip-rule="evenodd"/><path fill="#0cb6ff" fill-rule="evenodd" d="M21.403 82.937c9.332-9.567 27.795-14.005 65.868 4.335-13.32-29.807-30.83-40.252-35.843-35.114z" clip-rule="evenodd"/><circle cx="87.284" cy="87.261" r="3.676" fill="#fff" transform="rotate(-.71 87.284 87.26)"/><path fill="#fff" d="M196.029 57.428a.62.62 0 0 1-.455-.195.62.62 0 0 1-.195-.456q0-.26.032-.357l8.066-21.042q.26-.716 1.041-.716h2.211q.78 0 1.041.716l8.033 21.042.065.357a.62.62 0 0 1-.195.456.62.62 0 0 1-.456.195h-1.658q-.358 0-.553-.163a1 1 0 0 1-.26-.39l-1.789-4.618H200.29l-1.789 4.618q-.065.195-.293.39-.195.162-.52.163zm13.985-7.968-4.391-11.545-4.39 11.545zm9.689 14.147a.75.75 0 0 1-.553-.228.7.7 0 0 1-.195-.52V41.264q0-.325.195-.52a.75.75 0 0 1 .553-.228h1.496a.65.65 0 0 1 .52.228.65.65 0 0 1 .228.52v1.431q1.821-2.505 5.333-2.504 3.416 0 5.106 2.147 1.724 2.145 1.854 5.528.033.358.033 1.106t-.033 1.106q-.13 3.35-1.854 5.528-1.723 2.147-5.106 2.147t-5.268-2.44v7.546q0 .325-.195.52a.65.65 0 0 1-.521.228zm6.894-8.488q2.31 0 3.35-1.431 1.074-1.431 1.171-3.773.033-.325.033-.943 0-6.147-4.554-6.147-2.244.001-3.382 1.496-1.106 1.464-1.203 3.513l-.033 1.236.033 1.268q.065 1.92 1.236 3.35 1.17 1.43 3.349 1.43m16.414 2.634a6.8 6.8 0 0 1-2.959-.65q-1.366-.651-2.179-1.757a4.34 4.34 0 0 1-.781-2.504q0-2.146 1.757-3.512 1.788-1.399 4.813-1.822l4.846-.682v-.944q0-3.317-3.805-3.317-1.431 0-2.342.618-.91.585-1.366 1.399-.098.293-.26.422-.13.13-.39.13h-1.399a.78.78 0 0 1-.52-.195.78.78 0 0 1-.195-.52q.032-.78.715-1.756.715-1.008 2.179-1.724 1.464-.748 3.61-.748 3.643 0 5.236 1.724 1.594 1.691 1.594 4.228V56.68a.75.75 0 0 1-.228.553.7.7 0 0 1-.52.195h-1.496a.82.82 0 0 1-.553-.195.82.82 0 0 1-.195-.553v-1.4q-.715 1.041-2.082 1.757-1.365.715-3.48.715m.683-2.44q2.115 0 3.448-1.365 1.365-1.398 1.366-4v-.91l-3.773.552q-2.309.325-3.48 1.106-1.17.747-1.171 1.919 0 1.3 1.074 2.016 1.073.683 2.536.683m19.376 2.44q-3.48 0-5.464-1.951-1.952-1.984-2.082-5.53l-.032-1.3.032-1.3q.13-3.546 2.082-5.497 1.984-1.984 5.464-1.984 2.341 0 3.967.846 1.627.845 2.407 2.081.813 1.236.878 2.472a.57.57 0 0 1-.195.52.82.82 0 0 1-.553.195h-1.561q-.326 0-.488-.13-.163-.13-.325-.52-.553-1.56-1.561-2.212-1.008-.683-2.537-.683-2.016 0-3.22 1.269-1.17 1.236-1.268 3.805l-.032 1.17.032 1.106q.098 2.602 1.268 3.838 1.171 1.236 3.22 1.236 1.529 0 2.537-.65 1.008-.684 1.561-2.245.162-.39.325-.52.162-.162.488-.163h1.561q.325 0 .553.228.228.195.195.52-.065 1.204-.878 2.472-.78 1.236-2.407 2.081-1.594.846-3.967.846m11.895-.325a.82.82 0 0 1-.553-.195.82.82 0 0 1-.195-.553V35.085q0-.325.195-.52a.75.75 0 0 1 .553-.228h1.626a.65.65 0 0 1 .52.228.65.65 0 0 1 .228.52v7.578q.944-1.204 2.211-1.821 1.269-.65 3.155-.65 3.122 0 4.846 2.016 1.756 1.983 1.756 5.3v9.172a.75.75 0 0 1-.228.553.7.7 0 0 1-.52.195h-1.626a.82.82 0 0 1-.553-.195.82.82 0 0 1-.195-.553v-9.01q0-2.31-1.138-3.577-1.107-1.269-3.22-1.269-2.049 0-3.285 1.301-1.203 1.27-1.203 3.545v9.009a.75.75 0 0 1-.228.553.7.7 0 0 1-.52.195zm25.802.325q-3.35 0-5.366-2.049-1.984-2.082-2.179-5.659l-.033-1.105.033-1.074q.227-3.512 2.211-5.593 2.016-2.082 5.301-2.082 3.61 0 5.594 2.31 1.984 2.276 1.984 6.178v.553a.75.75 0 0 1-.228.553.7.7 0 0 1-.52.195h-11.253v.293q.098 2.114 1.269 3.61 1.203 1.463 3.154 1.463 1.497 0 2.439-.585.976-.618 1.431-1.268.293-.39.423-.456.163-.097.553-.097h1.594q.292 0 .487.162.196.163.196.456 0 .715-.911 1.723-.878 1.008-2.504 1.757-1.595.715-3.675.715m4.455-10.017v-.097q0-2.244-1.236-3.643-1.203-1.43-3.252-1.43t-3.252 1.43q-1.17 1.398-1.171 3.643v.097z"/><path fill="#fff" d="m195.574 57.233-.177.176zm-.163-.813-.233-.09-.004.01zm8.066-21.042.233.09.002-.005zm4.293 0-.235.085.001.004zm8.033 21.042.246-.045a.2.2 0 0 0-.013-.045zm.065.357h.25l-.004-.044zm-.195.456.176.176zm-2.667.032-.177.177.017.015zm-.26-.39.237-.08-.004-.01zm-1.789-4.618.233-.09a.25.25 0 0 0-.233-.16zm-10.667 0v-.25a.25.25 0 0 0-.233.16zm-1.789 4.618-.233-.09-.004.01zm-.293.39.16.192.003-.002zm11.806-7.805v.25a.25.25 0 0 0 .234-.339zm-4.391-11.545.234-.09a.25.25 0 0 0-.467 0zm-4.39 11.545-.234-.089a.25.25 0 0 0 .234.339zm-5.204 7.718a.37.37 0 0 1-.278-.122l-.354.353a.87.87 0 0 0 .632.269zm-.278-.122a.38.38 0 0 1-.122-.279h-.5c0 .244.094.459.268.632zm-.122-.279c0-.175.012-.256.02-.278l-.475-.159a1.5 1.5 0 0 0-.045.437zm.016-.268 8.065-21.042-.467-.179-8.065 21.042zm8.067-21.046a.82.82 0 0 1 .297-.416.9.9 0 0 1 .509-.135v-.5a1.37 1.37 0 0 0-.792.223 1.32 1.32 0 0 0-.484.657zm.806-.55h2.211v-.5h-2.211zm2.211 0c.222 0 .386.05.509.134a.83.83 0 0 1 .297.416l.47-.17a1.3 1.3 0 0 0-.484-.658 1.37 1.37 0 0 0-.792-.223zm.807.554 8.033 21.042.467-.179-8.033-21.041zm8.021 20.997.065.358.492-.09-.065-.357zm.061.313a.38.38 0 0 1-.122.279l.353.353a.87.87 0 0 0 .269-.632zm-.122.279a.38.38 0 0 1-.279.122v.5a.87.87 0 0 0 .632-.269zm-.279.122h-1.658v.5h1.658zm-1.658 0c-.204 0-.323-.047-.393-.105l-.32.384c.19.159.439.22.713.22zm-.376-.09a.8.8 0 0 1-.2-.292l-.474.158c.059.177.171.34.32.488zm-.204-.303-1.789-4.618-.466.18 1.789 4.618zm-2.022-4.778H200.29v.5h10.667zm-10.9.16-1.789 4.618.466.18 1.789-4.618zm-1.793 4.629c-.024.072-.086.166-.218.28l.325.379a1.17 1.17 0 0 0 .367-.501zm-.216.277c-.073.062-.185.105-.36.105v.5c.259 0 .494-.066.68-.22zm-.36.105h-1.659v.5h1.659zm12.56-7.807-4.391-11.545-.467.177 4.39 11.546zm-4.858-11.545-4.391 11.545.468.178 4.39-11.546zm-4.157 11.884h8.781v-.5h-8.781zm17.917 13.67-.177.176zm0-22.636.177.177zm2.569 0-.19.163.027.027zm.228 1.951h-.25a.25.25 0 0 0 .452.147zm10.439-.357-.196.154.001.002zm1.854 5.528-.25.01.001.013zm0 2.212-.249-.023-.001.013zm-1.854 5.528.195.157.001-.001zm-10.374-.292.198-.153a.25.25 0 0 0-.448.153zm-.195 8.065-.177-.176-.013.014zm8.13-9.691-.2-.15-.002.003zm1.171-3.773-.249-.025-.001.015zm-7.903-5.594-.199-.151zm-1.203 3.513-.25-.012v.005zm-.033 1.236-.25-.007v.013zm.033 1.268-.25.006v.002zm1.236 3.35.193-.159zm-3.545 9.669a.5.5 0 0 1-.376-.154l-.354.353c.199.2.447.3.73.3zm-.376-.154c-.075-.075-.122-.18-.122-.344h-.5c0 .27.083.512.268.697zm-.122-.344V41.264h-.5V62.86zm0-21.595c0-.163.047-.268.122-.343l-.354-.354a.95.95 0 0 0-.268.697zm.122-.343a.5.5 0 0 1 .376-.155v-.5c-.283 0-.531.102-.73.301zm.376-.155h1.496v-.5h-1.496zm1.496 0a.4.4 0 0 1 .33.14l.38-.325a.9.9 0 0 0-.71-.315zm.357.168a.4.4 0 0 1 .141.33h.5a.9.9 0 0 0-.315-.71zm.141.33v1.431h.5v-1.43zm.452 1.578c1.16-1.595 2.857-2.4 5.131-2.4v-.5c-2.409 0-4.267.863-5.535 2.606zm5.131-2.4c2.221 0 3.842.694 4.91 2.05l.393-.31c-1.187-1.505-2.97-2.24-5.303-2.24zm4.911 2.052c1.109 1.38 1.714 3.168 1.799 5.382l.5-.02c-.088-2.295-.719-4.193-1.909-5.675zm1.8 5.395q.032.338.032 1.083h.5q0-.751-.034-1.128zm.032 1.083q0 .744-.032 1.083l.498.045q.034-.377.034-1.128zm-.033 1.096c-.085 2.192-.69 3.98-1.8 5.383l.392.31c1.189-1.502 1.82-3.399 1.908-5.674zm-1.799 5.382c-1.09 1.358-2.712 2.053-4.911 2.053v.5c2.312 0 4.094-.736 5.301-2.24zm-4.911 2.053c-2.186 0-3.865-.784-5.07-2.342l-.396.306c1.31 1.694 3.143 2.536 5.466 2.536zm-5.518-2.19v7.546h.5v-7.545zm0 7.546c0 .163-.047.269-.122.343l.354.354a.95.95 0 0 0 .268-.697zm-.135.358a.4.4 0 0 1-.331.14v.5a.9.9 0 0 0 .711-.315zm-.331.14h-1.593v.5h1.593zm5.301-7.988c1.593 0 2.798-.497 3.552-1.534l-.404-.294c-.633.87-1.661 1.328-3.148 1.328zm3.55-1.531c.754-1.005 1.154-2.316 1.221-3.912l-.5-.021c-.063 1.526-.444 2.73-1.121 3.633zm1.22-3.898q.034-.346.034-.968h-.5q0 .613-.032.918zm.034-.968c0-2.072-.383-3.672-1.188-4.759-.815-1.1-2.036-1.638-3.616-1.638v.5c1.456 0 2.512.488 3.214 1.436.713.962 1.09 2.436 1.09 4.461zm-4.804-6.397c-1.557 0-2.765.523-3.581 1.595l.398.303c.702-.923 1.749-1.398 3.183-1.398zm-3.581 1.596c-.771 1.02-1.187 2.24-1.254 3.65l.5.025c.063-1.322.449-2.443 1.153-3.374zm-1.254 3.656-.033 1.236.5.013.033-1.236zm-.033 1.249.033 1.268.5-.013-.033-1.268zm.033 1.27c.045 1.332.476 2.502 1.292 3.5l.387-.317c-.744-.91-1.138-1.973-1.179-3.2zm1.292 3.5c.837 1.023 2.031 1.523 3.543 1.523v-.5c-1.392 0-2.431-.454-3.156-1.34zm16.998 3.257.107-.226zm-2.179-1.757-.206.142.005.006zm.976-6.016.153.197h.001zm4.813-1.822.034.248h.001zm4.846-.682.035.247a.25.25 0 0 0 .215-.247zm-6.147-3.643.135.21.005-.003zm-1.366 1.399-.218-.123a.2.2 0 0 0-.019.043zm-.26.422-.156-.195-.021.019zm-2.309-.065-.19.163q.012.015.027.027zm-.195-.52-.25-.01v.01zm.715-1.756-.204-.145-.001.001zm2.179-1.724.11.225.004-.002zm8.846.976-.183.17.001.001zm1.366 15.318.177.176zm-2.569 0-.19.162q.012.016.027.027zm-.195-1.952h.25a.25.25 0 0 0-.456-.142zm-2.082 1.757-.116-.222zm.651-3.09-.179-.175zm1.366-4.91h.25a.25.25 0 0 0-.287-.248zm-3.773.552.035.247h.001zm-3.48 1.106.135.21.004-.002zm-.097 3.935-.139.208.004.003zm1.853 2.872a6.55 6.55 0 0 1-2.852-.626l-.215.451q1.42.675 3.067.675zm-2.852-.626c-.877-.418-1.569-.978-2.085-1.679l-.402.296q.854 1.16 2.272 1.834zm-2.08-1.672a4.1 4.1 0 0 1-.737-2.363h-.5q0 1.445.825 2.646zm-.737-2.363c0-1.35.548-2.45 1.66-3.315l-.307-.395c-1.229.956-1.853 2.199-1.853 3.71zm1.661-3.315c1.147-.898 2.706-1.493 4.693-1.77l-.069-.496c-2.045.286-3.695.905-4.932 1.872zm4.694-1.77 4.846-.684-.07-.495-4.846.683zm5.061-.931v-.944h-.5v.944zm0-.944c0-1.153-.333-2.062-1.037-2.676-.698-.608-1.719-.89-3.018-.89v.5c1.237 0 2.119.27 2.689.767.564.492.866 1.242.866 2.3zm-4.055-3.567c-.99 0-1.823.214-2.482.661l.28.414c.555-.377 1.283-.575 2.202-.575zm-2.477.658c-.636.409-1.123.903-1.449 1.486l.436.245c.281-.501.705-.939 1.283-1.31zm-1.468 1.53c-.057.17-.123.26-.179.306l.312.39c.16-.127.268-.318.341-.538zm-.2.325c-.023.023-.078.056-.213.056v.5c.212 0 .417-.053.567-.203zm-.213.056h-1.399v.5h1.399zm-1.399 0a.52.52 0 0 1-.357-.135l-.326.38c.196.168.427.255.683.255zm-.33-.107a.52.52 0 0 1-.135-.358h-.5c0 .256.087.487.255.683zm-.136-.348c.019-.453.23-.992.671-1.623l-.41-.287c-.469.67-.736 1.303-.76 1.89zm.67-1.622c.446-.629 1.135-1.179 2.085-1.643l-.22-.45c-1.001.49-1.765 1.089-2.273 1.804zm2.089-1.645c.931-.476 2.093-.72 3.496-.72v-.5c-1.459 0-2.704.253-3.724.775zm3.496-.72c2.397 0 4.058.567 5.053 1.642l.367-.339c-1.131-1.223-2.96-1.804-5.42-1.804zm5.054 1.644c1.015 1.077 1.526 2.423 1.526 4.057h.5c0-1.749-.552-3.221-1.662-4.4zm1.526 4.057V56.68h.5V46.143zm0 10.537c0 .151-.05.272-.155.376l.354.353c.199-.199.301-.447.301-.73zm-.155.376c-.075.075-.18.122-.343.122v.5a.95.95 0 0 0 .697-.269zm-.343.122h-1.496v.5h1.496zm-1.496 0a.57.57 0 0 1-.391-.135l-.325.38c.201.172.445.255.716.255zm-.363-.108a.57.57 0 0 1-.135-.39h-.5c0 .27.083.514.255.715zm-.135-.39v-1.4h-.5v1.399zm-.456-1.54c-.45.653-1.109 1.214-1.992 1.676l.232.443c.939-.492 1.667-1.102 2.172-1.836zm-1.992 1.676c-.864.453-1.98.687-3.364.687v.5c1.436 0 2.639-.243 3.596-.744zm-2.681-1.252c1.469 0 2.685-.477 3.627-1.441l-.358-.35c-.837.857-1.919 1.29-3.269 1.29zm3.627-1.441c.969-.993 1.437-2.398 1.437-4.175h-.5c0 1.691-.444 2.953-1.295 3.825zm1.437-4.175v-.91h-.5v.91zm-.287-1.158-3.772.553.072.494 3.773-.553zm-3.771.552c-1.555.22-2.758.595-3.583 1.146l.277.416c.735-.49 1.852-.852 3.376-1.067zm-3.579 1.143c-.837.535-1.287 1.247-1.287 2.13h.5c0-.679.332-1.246 1.056-1.709zm-1.287 2.13c0 .95.399 1.7 1.185 2.224l.277-.416c-.645-.43-.962-1.024-.962-1.809zm1.189 2.227c.762.484 1.655.722 2.671.722v-.5c-.935 0-1.733-.218-2.402-.644zm16.583.96-.178.175.003.003zm-2.082-5.53-.249.007v.003zm-.032-1.3-.25-.006v.012zm.032-1.3-.249-.01v.003zm2.082-5.497.177.177zm9.431-1.138-.115.221zm2.407 2.081-.212.134.003.003zm.878 2.472-.25.013.001.012zm-.195.52.163.19zm-2.602.065.156-.195zm-.325-.52-.236.083.005.013zm-1.561-2.212-.14.207.004.003zm-5.757.586-.181-.172zm-1.268 3.805-.25-.01v.003zm-.032 1.17-.25-.006v.014zm.032 1.106-.25.008v.002zm1.268 3.838-.181.172zm5.757.585.135.21.005-.003zm1.561-2.244-.231-.096-.005.013zm.325-.52.156.195.021-.018zm2.602.065-.177.177.014.013zm.195.52-.249-.025-.001.012zm-.878 2.472-.211-.135-.001.002zm-2.407 2.081-.115-.221h-.002zm-3.967.596c-2.272 0-4.024-.636-5.289-1.88l-.35.357c1.38 1.358 3.27 2.023 5.639 2.023zm-5.286-1.877c-1.246-1.267-1.925-3.044-2.01-5.362l-.499.018c.088 2.408.797 4.317 2.153 5.695zm-2.01-5.36-.032-1.3-.5.012.033 1.301zm-.032-1.288.032-1.3-.499-.013-.033 1.3zm.032-1.298c.085-2.318.764-4.084 2.009-5.328l-.354-.354c-1.357 1.357-2.066 3.256-2.154 5.664zm2.009-5.328c1.265-1.265 3.016-1.91 5.287-1.91v-.5c-2.37 0-4.261.676-5.641 2.056zm5.287-1.91c1.531 0 2.812.276 3.852.816l.231-.443c-1.129-.587-2.493-.874-4.083-.874zm3.852.816c1.055.549 1.819 1.215 2.31 1.994l.423-.267c-.549-.87-1.389-1.591-2.502-2.17zm2.313 1.997c.522.795.797 1.576.837 2.348l.5-.026c-.046-.876-.358-1.743-.919-2.596zm.838 2.36c.015.144-.025.234-.109.305l.326.38a.82.82 0 0 0 .281-.735zm-.109.305a.57.57 0 0 1-.39.135v.5c.271 0 .514-.083.716-.255zm-.39.135h-1.561v.5h1.561zm-1.561 0c-.19 0-.287-.039-.332-.075l-.312.39c.171.138.4.185.644.185zm-.332-.075c-.056-.045-.145-.168-.25-.421l-.462.192c.111.267.239.49.4.62zm-.245-.409c-.381-1.073-.928-1.865-1.662-2.338l-.271.42c.611.395 1.104 1.077 1.461 2.085zm-1.657-2.335c-.723-.49-1.621-.726-2.677-.726v.5c.982 0 1.775.22 2.397.64zm-2.677-.726c-1.401 0-2.544.444-3.401 1.347l.363.344c.747-.788 1.751-1.19 3.038-1.19zm-3.401 1.347c-.839.885-1.271 2.224-1.337 3.967l.5.02c.064-1.683.478-2.881 1.2-3.643zm-1.337 3.97-.032 1.17.499.014.033-1.17zm-.032 1.185.032 1.106.5-.015-.033-1.106zm.032 1.108c.066 1.764.497 3.114 1.337 4l.363-.344c-.722-.762-1.136-1.97-1.2-3.675zm1.337 4c.837.884 1.982 1.314 3.401 1.314v-.5c-1.312 0-2.314-.394-3.038-1.158zm3.401 1.314c1.054 0 1.95-.225 2.672-.69l-.271-.42c-.622.4-1.417.61-2.401.61zm2.677-.694c.73-.494 1.276-1.294 1.657-2.367l-.472-.167c-.357 1.008-.851 1.704-1.465 2.12zm1.652-2.355c.105-.253.194-.376.25-.42l-.312-.391c-.161.128-.289.352-.4.62zm.271-.44c.045-.044.133-.089.311-.089v-.5c-.255 0-.493.064-.665.236zm.311-.089h1.561v-.5h-1.561zm1.561 0c.151 0 .272.05.376.155l.354-.354c-.2-.199-.448-.3-.73-.3zm.39.168c.084.071.124.161.109.305l.498.05a.82.82 0 0 0-.281-.735zm.108.317c-.04.75-.314 1.532-.839 2.35l.421.27c.56-.873.871-1.738.918-2.593zm-.84 2.352c-.491.778-1.255 1.444-2.31 1.993l.231.443c1.113-.579 1.953-1.3 2.502-2.17zm-2.312 1.994c-1.017.539-2.296.816-3.85.816v.5c1.611 0 2.976-.287 4.084-.875zm7.492.546-.19.162q.012.016.027.027zm0-22.668.177.177zm2.699 0-.19.163.027.027zm.228 8.098h-.25a.25.25 0 0 0 .447.154zm2.211-1.821.11.224.004-.002zm8.001 1.366-.19.162.003.003zm1.528 15.025-.177-.177zm-2.699 0-.19.162q.013.016.027.027zm-1.333-13.14-.189.165.002.003zm-6.505.033-.181-.172zm-1.431 13.107-.177-.177zm-2.146-.055a.57.57 0 0 1-.39-.135l-.326.38c.201.172.445.255.716.255zm-.363-.108a.57.57 0 0 1-.135-.39h-.5c0 .27.083.514.255.715zm-.135-.39V35.085h-.5V56.68zm0-21.595c0-.163.047-.269.122-.343l-.354-.354a.95.95 0 0 0-.268.697zm.122-.343a.5.5 0 0 1 .376-.155v-.5c-.283 0-.531.102-.73.301zm.376-.155h1.626v-.5h-1.626zm1.626 0a.4.4 0 0 1 .33.14l.38-.325a.9.9 0 0 0-.71-.315zm.357.168a.4.4 0 0 1 .141.33h.5a.9.9 0 0 0-.315-.71zm.141.33v7.578h.5v-7.578zm.447 7.732q.91-1.162 2.124-1.75l-.219-.45q-1.324.646-2.299 1.892zm2.128-1.753c.801-.41 1.811-.623 3.041-.623v-.5c-1.285 0-2.378.221-3.269.678zm3.041-.623c2.023 0 3.563.65 4.656 1.929l.38-.325c-1.205-1.41-2.896-2.104-5.036-2.104zm4.659 1.932c1.12 1.266 1.693 2.97 1.693 5.136h.5c0-2.257-.598-4.088-1.819-5.467zm1.693 5.136v9.17h.5v-9.17zm0 9.17c0 .152-.05.273-.155.377l.354.353c.199-.199.301-.447.301-.73zm-.155.377c-.074.075-.18.122-.343.122v.5a.95.95 0 0 0 .697-.269zm-.343.122h-1.626v.5h1.626zm-1.626 0a.57.57 0 0 1-.39-.135l-.326.38c.201.172.445.255.716.255zm-.363-.108a.57.57 0 0 1-.135-.39h-.5c0 .27.083.514.255.715zm-.135-.39v-9.01h-.5v9.009zm0-9.009c0-1.579-.39-2.839-1.202-3.744l-.373.334c.705.785 1.075 1.91 1.075 3.41zm-1.2-3.742c-.796-.913-1.947-1.354-3.408-1.354v.5c1.357 0 2.353.405 3.031 1.183zm-3.408-1.354c-1.424 0-2.588.455-3.466 1.38l.362.343c.77-.81 1.796-1.223 3.104-1.223zm-3.466 1.38c-.859.904-1.272 2.154-1.272 3.716h.5c0-1.474.388-2.586 1.135-3.373zm-1.272 3.716v9.009h.5v-9.01zm0 9.009c0 .151-.05.272-.155.376l.354.353c.199-.199.301-.447.301-.73zm-.155.376c-.075.075-.18.122-.343.122v.5a.95.95 0 0 0 .697-.269zm-.343.122h-1.626v.5h1.626zm18.81-1.474-.181.173.003.002zm-2.179-5.659-.25.008v.006zm-.033-1.105-.25-.008v.015zm.033-1.074-.25-.016v.009zm2.211-5.593-.179-.174-.002.001zm10.895.227-.19.163.002.001zm1.756 7.285.177.177zm-11.773.195v-.25a.25.25 0 0 0-.25.25zm0 .293h-.25l.001.011zm1.269 3.61-.197.154.004.005zm5.593.878.132.212h.002zm1.431-1.268-.2-.15-.004.006zm.423-.456.112.224.017-.01zm2.634.065-.16.192zm-.715 2.18-.186-.168-.003.003zm-2.504 1.756.102.228.002-.001zm.78-9.302v.25a.25.25 0 0 0 .25-.25zm-1.236-3.74-.191.161.004.005zm-6.504 0-.191-.16h-.001zm-1.171 3.74h-.25c0 .138.112.25.25.25zm4.456 9.767c-2.178 0-3.899-.664-5.188-1.974l-.356.35c1.399 1.422 3.256 2.124 5.544 2.124zm-5.185-1.971c-1.272-1.335-1.983-3.16-2.111-5.5l-.499.027c.133 2.43.875 4.377 2.248 5.818zm-2.11-5.494-.033-1.106-.5.015.033 1.106zm-.033-1.09.033-1.074-.5-.015-.033 1.073zm.032-1.065c.149-2.297.87-4.102 2.143-5.438l-.362-.345c-1.371 1.439-2.125 3.364-2.28 5.75zm2.142-5.437c1.29-1.332 2.989-2.005 5.121-2.005v-.5c-2.247 0-4.083.715-5.48 2.158zm5.121-2.005c2.349 0 4.138.748 5.404 2.222l.38-.326c-1.379-1.605-3.319-2.396-5.784-2.396zm5.406 2.223c1.272 1.46 1.922 3.456 1.922 6.015h.5c0-2.644-.673-4.768-2.045-6.343zm1.922 6.015v.553h.5v-.553zm0 .553c0 .151-.05.272-.155.376l.354.354c.199-.2.301-.447.301-.73zm-.155.376c-.074.075-.18.122-.343.122v.5c.27 0 .512-.083.697-.268zm-.343.122h-11.253v.5h11.253zm-11.503.25v.293h.5v-.293zm.001.304c.067 1.455.505 2.71 1.321 3.753l.394-.308c-.745-.952-1.153-2.104-1.216-3.468zm1.325 3.758c.851 1.035 1.974 1.554 3.347 1.554v-.5c-1.228 0-2.208-.456-2.961-1.372zm3.347 1.554c1.029 0 1.891-.2 2.571-.623l-.263-.425c-.578.36-1.341.548-2.308.548zm2.573-.624c.667-.422 1.173-.866 1.502-1.336l-.409-.287c-.278.397-.726.8-1.36 1.2zm1.497-1.33q.142-.188.236-.288a1 1 0 0 1 .075-.074q.03-.023.024-.02l-.224-.446a1 1 0 0 0-.242.2 4 4 0 0 0-.269.329zm.352-.39c.046-.028.171-.062.424-.062v-.5c-.267 0-.511.03-.681.133zm.424-.062h1.594v-.5h-1.594zm1.594 0c.146 0 .249.039.327.104l.321-.384a1 1 0 0 0-.648-.22zm.327.104c.064.054.106.13.106.264h.5a.81.81 0 0 0-.285-.648zm.106.264c0 .379-.248.893-.847 1.556l.372.335c.615-.682.975-1.317.975-1.891zm-.85 1.56c-.555.637-1.357 1.204-2.42 1.692l.209.455c1.106-.51 1.973-1.113 2.589-1.82zm-2.418 1.691q-1.535.692-3.572.694v.5q2.126.002 3.777-.737zm1.133-9.073v-.097h-.5v.097zm0-.097c0-1.544-.426-2.822-1.298-3.808l-.375.33c.776.878 1.173 2.03 1.173 3.478zm-1.294-3.804c-.855-1.016-2.012-1.52-3.444-1.52v.5c1.3 0 2.311.45 3.061 1.342zm-3.444-1.52c-1.431 0-2.589.504-3.443 1.52l.382.322c.75-.892 1.761-1.342 3.061-1.342zm-3.444 1.52c-.826.988-1.229 2.263-1.229 3.804h.5c0-1.452.378-2.605 1.113-3.482zm-1.229 3.804v.097h.5v-.097zm.25.347h8.911v-.5h-8.911zm-107.044 85.822q-.661 0-1.157-.496t-.496-1.157q0-.66.083-.909l20.491-53.457q.66-1.818 2.644-1.818h5.618q1.983 0 2.644 1.818l20.408 53.457.165.909q0 .661-.496 1.157-.495.496-1.156.496h-4.214q-.909 0-1.405-.413-.496-.496-.661-.992l-4.544-11.732h-27.1l-4.545 11.732q-.165.496-.743.992-.497.413-1.322.413zm35.528-20.243-11.154-29.331-11.154 29.331zm23.872-30.736q-.826 0-1.405-.496-.496-.578-.496-1.404v-4.462q0-.826.496-1.405a1.9 1.9 0 0 1 1.405-.578h5.205a1.9 1.9 0 0 1 1.404.578q.579.579.579 1.405v4.462q0 .826-.579 1.404-.578.495-1.404.496zm.661 50.979q-.826 0-1.405-.496-.496-.579-.496-1.405V92.744q0-.827.496-1.322a1.9 1.9 0 0 1 1.405-.578h3.965q.827 0 1.322.578.579.495.579 1.322v39.163q0 .826-.579 1.405-.495.496-1.322.496zm20.01 0q-.826 0-1.405-.496-.495-.579-.495-1.405v-39.08q0-.827.495-1.405a1.9 1.9 0 0 1 1.405-.578h3.801q.826 0 1.404.578.579.578.579 1.404v3.636q3.387-5.619 11.567-5.618h3.222q.827 0 1.322.578.579.495.578 1.322v3.387q0 .827-.578 1.322-.495.496-1.322.496h-4.957q-4.462 0-7.023 2.644-2.562 2.562-2.562 7.023v24.291q0 .826-.578 1.405-.579.496-1.405.496zm35.683 0q-.826 0-1.404-.496-.496-.579-.496-1.405V97.453h-7.023q-.826 0-1.404-.495-.496-.579-.496-1.405v-2.81q0-.825.496-1.321a1.9 1.9 0 0 1 1.404-.578h7.023v-4.132q0-14.046 14.211-14.046h4.627q.827 0 1.322.579.579.494.579 1.322v2.809q0 .826-.579 1.404-.495.496-1.322.496h-4.461q-3.718 0-5.206 1.983-1.487 1.9-1.487 5.866v3.719h17.681V74.567q0-.827.496-1.322a1.9 1.9 0 0 1 1.405-.579h3.8q.827 0 1.322.579.579.494.579 1.322v57.34q0 .826-.579 1.405-.495.496-1.322.496h-3.8q-.826 0-1.405-.496-.495-.579-.496-1.405V97.453h-17.681v34.454q0 .826-.578 1.405-.496.496-1.322.496zm60.944.826q-9.088 0-14.128-5.123-4.958-5.122-5.288-13.633l-.083-3.552.083-3.553q.33-8.428 5.37-13.55 5.04-5.206 14.046-5.206t14.046 5.206q5.04 5.122 5.371 13.55.082.909.082 3.553 0 2.643-.082 3.552-.331 8.51-5.371 13.633-4.958 5.123-14.046 5.123m0-6.362q5.205 0 8.18-3.305 3.057-3.305 3.305-9.502.082-.826.082-3.139 0-2.314-.082-3.14-.248-6.197-3.305-9.502-2.975-3.305-8.18-3.305t-8.262 3.305-3.222 9.502l-.083 3.14.083 3.139q.165 6.197 3.222 9.502t8.262 3.305m40.118 5.536q-1.074 0-1.653-.496-.578-.496-.991-1.57l-11.733-38.337-.165-.826q0-.744.496-1.24.577-.495 1.239-.495h3.635q.827 0 1.322.495.579.414.744.91l9.171 31.148 9.832-30.818q.166-.662.744-1.157.579-.578 1.57-.578h2.809q.991 0 1.57.578.578.495.744 1.157l9.832 30.818 9.171-31.149q.083-.412.578-.909.579-.495 1.405-.495h3.718q.661 0 1.157.495.495.495.495 1.24l-.165.826-11.65 38.337q-.413 1.074-.991 1.57t-1.735.496h-3.223q-2.23 0-2.726-2.066l-9.585-29.579-9.584 29.579q-.66 2.066-2.809 2.066z"/></g><defs><clipPath id="a"><path fill="#fff" d="M0 0h453v175H0z"/></clipPath></defs></svg>
