<svg xmlns="http://www.w3.org/2000/svg" viewBox="0 0 35 35"><path fill="#017cee" d="m.861 35.387 16.912-17.335a.31.31 0 0 0 .038-.4c-1.029-1.436-2.926-1.685-3.63-2.65-2.083-2.858-2.611-4.475-3.507-4.375a.27.27 0 0 0-.162.086l-6.11 6.262C.889 20.578.385 28.51.293 35.152c-.005.3.36.45.57.235"/><path fill="#00ad46" d="M35.473 34.959 18.138 18.047a.31.31 0 0 0-.4-.038c-1.436 1.029-1.685 2.926-2.65 3.63-2.858 2.083-4.475 2.611-4.375 3.507a.27.27 0 0 0 .086.162l6.262 6.11c3.603 3.514 11.535 4.018 18.178 4.11.3.005.45-.36.234-.57"/><path fill="#04d659" fill-rule="evenodd" d="M17.061 31.417c-1.968-1.92-2.88-5.718.892-13.55-6.132 2.74-8.28 6.342-7.223 7.374z" clip-rule="evenodd"/><path fill="#00c7d4" d="M35.045.347 18.133 17.683a.31.31 0 0 0-.038.4c1.029 1.436 2.926 1.684 3.629 2.65 2.084 2.857 2.612 4.474 3.507 4.374a.27.27 0 0 0 .163-.085l6.109-6.263c3.515-3.603 4.019-11.535 4.111-18.177a.331.331 0 0 0-.57-.235"/><path fill="#11e1ee" fill-rule="evenodd" d="M31.503 18.759c-1.92 1.968-5.718 2.881-13.55-.892 2.74 6.132 6.342 8.28 7.373 7.223z" clip-rule="evenodd"/><path fill="#e43921" d="m.433.775 17.336 16.912a.31.31 0 0 0 .4.038c1.435-1.029 1.684-2.926 2.649-3.63 2.858-2.083 4.475-2.611 4.375-3.507a.27.27 0 0 0-.086-.162l-6.262-6.11C15.242.803 7.31.299.668.207a.331.331 0 0 0-.235.57"/><path fill="#ff7557" fill-rule="evenodd" d="M18.845 4.317c1.968 1.92 2.88 5.718-.892 13.55 6.131-2.74 8.28-6.342 7.223-7.374z" clip-rule="evenodd"/><path fill="#0cb6ff" fill-rule="evenodd" d="M4.403 16.975c1.92-1.968 5.718-2.88 13.55.892-2.74-6.132-6.342-8.28-7.373-7.223z" clip-rule="evenodd"/><path fill="#4a4848" d="M17.965 18.62a.756.756 0 1 0-.019-1.511.756.756 0 0 0 .019 1.512"/></svg>
